{"title":"Kate Beckinsale Yoga Segment@After Lately March 22,2013 720p HD[","uid":8291436,"size":18100299,"categoryP":"video","categoryS":"hd___tv_shows","magnet":"?xt=urn:btih:da3f7db9d4de7e61891a4fe9559431a23690dc54&amp;dn=Kate+Beckinsale+Yoga+Segment%40After+Lately+March+22%2C2013+720p+HD%5B&amp;tr=udp%3A%2F%2Ftracker.openbittorrent.com%3A80&amp;tr=udp%3A%2F%2Fopen.demonii.com%3A1337&amp;tr=udp%3A%2F%2Ftracker.coppersurfer.tk%3A6969&amp;tr=udp%3A%2F%2Fexodus.desync.com%3A6969","seeders":2,"leechers":1,"uploader":"Orion_Me","files":-1,"time":1364053627,"description":"\n_____________________________________________________________________________ \n       ooooooo        ooooooo       ooo       ooooooo      ooooo      ooo\n    ooo       ooo  ooo       ooo    ooo    ooo       ooo   oooooo     ooo \n    ooo       ooo  ooo      ooo     ooo    ooo       ooo   ooo ooo    ooo \n    ooo       ooo  ooo     ooo      ooo    ooo       ooo   ooo  ooo   ooo \n    ooo       ooo  oooooooooo       ooo    ooo       ooo   ooo   ooo  ooo\n    ooo       ooo  ooo     ooo      ooo    ooo       ooo   ooo    ooo ooo\n    ooo       ooo  ooo      ooo     ooo    ooo       ooo   ooo     oooooo\n       ooooooo     ooo       ooo    ooo       ooooooo      ooo      ooooo\n          \n                                                 \n                        ooooooo ooooooo         ooooooo       \n                      ooo     ooo     ooo     ooo\n                      ooo     ooo     ooo     ooo\n                      ooo     ooo     ooo     ooooooooo\n                      ooo     ooo     ooo     ooooooooo\n                      ooo     ooo     ooo     ooo\n                      ooo     ooo     ooo     ooo\n                      ooo     ooo     ooo       ooooooo\n______________________________________________________________________________\n\nKEEP LOOKING FORWARD TO FUTURE RELEASES.......Please seed as long as you can!!\n\nContains the Kate Beckinsale yoga segment of After Lately aired on E! on March 22,2013\n\nGeneral\nComplete name                    : Kate Beckinsale Yoga Segment@After Lately March 22,2013 720p HD[Orion_Me]VideoKate Beckinsale Yoga Segment@After Lately March 22,2013 720p HD[Orion_Me].mp4\nFormat                           : MPEG-4\nFormat profile                   : Base Media / Version 2\nCodec ID                         : mp42\nFile size                        : 15.5 MiB\nDuration                         : 1mn 5s\nOverall bit rate                 : 1 990 Kbps\n\nVideo\nID                               : 1\nFormat                           : AVC\nFormat/Info                      : Advanced Video Codec\nFormat profile                   : &lt;a class=&quot;__cf_email__&quot; href=&quot;/cdn-cgi/l/email-protection&quot; data-cfemail=&quot;e7af8e808fa7abd4c9d6&quot;&gt;[email&amp;#160;protected]&lt;/a&gt;&lt;script cf-hash='f9e31' type=&quot;text/javascript&quot;&gt;\n/* &lt;![CDATA[ */!function(){try{var t=&quot;currentScript&quot;in document?document.currentScript:function(){for(var t=document.getElementsByTagName(&quot;script&quot;),e=t.length;e--;)if(t[e].getAttribute(&quot;cf-hash&quot;))return t[e]}();if(t&amp;&amp;t.previousSibling){var e,r,n,i,c=t.previousSibling,a=c.getAttribute(&quot;data-cfemail&quot;);if(a){for(e=&quot;&quot;,r=parseInt(a.substr(0,2),16),n=2;a.length-n;n+=2)i=parseInt(a.substr(n,2),16)^r,e+=String.fromCharCode(i);e=document.createTextNode(e),c.parentNode.replaceChild(e,c)}}}catch(u){}}();/* ]]&gt; */&lt;/script&gt;\nFormat settings, CABAC           : Yes\nFormat settings, ReFrames        : 1 frame\nCodec ID                         : avc1\nCodec ID/Info                    : Advanced Video Coding\nDuration                         : 1mn 5s\nBit rate mode                    : Variable\nBit rate                         : 1 796 Kbps\nMaximum bit rate                 : 6 472 Kbps\nWidth                            : 1 280 pixels\nHeight                           : 720 pixels\nDisplay aspect ratio             : 16:9\nFrame rate mode                  : Constant\nFrame rate                       : 29.970 fps\nColor space                      : YUV\nChroma subsampling               : 4:2:0\nBit depth                        : 8 bits\nScan type                        : Progressive\nBits/(Pixel*Frame)               : 0.065\nStream size                      : 14.0 MiB (90%)\n\nAudio\nID                               : 2\nFormat                           : AAC\nFormat/Info                      : Advanced Audio Codec\nFormat version                   : Version 4\nFormat profile                   : LC\nFormat settings, SBR             : No\nCodec ID                         : 40\nDuration                         : 1mn 5s\nBit rate mode                    : Variable\nBit rate                         : 192 Kbps\nMaximum bit rate                 : 201 Kbps\nChannel(s)                       : 2 channels\nChannel positions                : Front: L R\nSampling rate                    : 44.1 KHz\nStream size                      : 1.49 MiB (10%)\n\n\n\n            --As Eternity has reckoned There's a lifetime in a second--\n\t\n\n\nMore Screens: &lt;a href=&quot;\nhttp://bayimg.com/PaKbLAaEP&quot; rel=&quot;nofollow&quot; target=&quot;_NEW&quot;&gt;\nhttp://bayimg.com/PaKbLAaEP&lt;/a&gt; &lt;a href=&quot;\nhttp://bayimg.com/PaKbLAaEP&quot; rel=&quot;nofollow&quot; target=&quot;_NEW&quot;&gt;\nhttp://bayimg.com/PaKbLAaEP&lt;/a&gt;\n","torrent":{"xt":"urn:btih:da3f7db9d4de7e61891a4fe9559431a23690dc54","amp;dn":"Kate+Beckinsale+Yoga+Segment%40After+Lately+March+22%2C2013+720p+HD%5B","amp;tr":["udp%3A%2F%2Ftracker.openbittorrent.com%3A80","udp%3A%2F%2Fopen.demonii.com%3A1337","udp%3A%2F%2Ftracker.coppersurfer.tk%3A6969","udp%3A%2F%2Fexodus.desync.com%3A6969"],"infoHash":"da3f7db9d4de7e61891a4fe9559431a23690dc54","infoHashBuffer":{"type":"Buffer","data":[218,63,125,185,212,222,126,97,137,26,79,233,85,148,49,162,54,144,220,84]},"announce":[],"urlList":[]}}